<svg xmlns="http://www.w3.org/2000/svg" viewBox="0 0 64 64" fill="none">
  <defs>
    <linearGradient id="bg" x1="10" y1="8" x2="54" y2="56" gradientUnits="userSpaceOnUse">
      <stop stop-color="#11243A"/>
      <stop offset="0.58" stop-color="#0C1728"/>
      <stop offset="1" stop-color="#08111E"/>
    </linearGradient>
    <linearGradient id="line" x1="15" y1="18" x2="48" y2="46" gradientUnits="userSpaceOnUse">
      <stop stop-color="#DDFCE9"/>
      <stop offset="0.45" stop-color="#7AF3AF"/>
      <stop offset="1" stop-color="#2DD36F"/>
    </linearGradient>
    <linearGradient id="accent" x1="35" y1="14" x2="44" y2="24" gradientUnits="userSpaceOnUse">
      <stop stop-color="#B9F8D2"/>
      <stop offset="1" stop-color="#38E07D"/>
    </linearGradient>
  </defs>
  <rect x="4" y="4" width="56" height="56" rx="18" fill="url(#bg)"/>
  <path d="M15 18.5V41.5C15 44.54 17.46 47 20.5 47H44.5" stroke="rgba(255,255,255,0.12)" stroke-width="2" stroke-linecap="round"/>
  <path d="M18 20L24.6 39.5L31.4 28L38.1 39.5L45.5 17.5" stroke="url(#line)" stroke-width="4.6" stroke-linecap="round" stroke-linejoin="round"/>
  <path d="M37 17.3C39.6 17.3 41.86 18.78 42.83 21.01C40.73 20.32 38.39 20.91 37 22.86C35.61 20.91 33.27 20.32 31.17 21.01C32.14 18.78 34.4 17.3 37 17.3Z" fill="url(#accent)"/>
  <path d="M37 14V18.8" stroke="#E6FFF0" stroke-width="2.4" stroke-linecap="round"/>
</svg>
